# Blender 4.2.1 LTS
# www.blender.org
mtllib Sphere.001.mtl
o Sphere.001_Baked
v 1.175016 1.033680 1.215187
v 1.285237 0.562394 0.796015
v 0.588735 1.539266 1.669477
v 0.212611 2.965823 1.022547
v 0.690274 0.011578 0.313236
v -1.121488 0.801078 1.031462
v -0.701955 0.014538 0.329574
v 0.310928 0.553778 -1.406371
v 0.204425 0.000937 -0.774982
v -1.271735 2.034617 -0.114438
v -1.315107 2.092555 0.520804
v -1.453849 0.971232 0.807478
v -1.095964 0.008678 -0.293416
v -0.851872 0.004128 -0.674084
v -0.759885 0.481616 -1.219414
v -1.439305 0.428445 -0.104623
v -1.328483 1.003705 -0.761616
v 1.338000 1.879697 0.248967
v 1.470427 1.523677 -0.301848
v 1.224206 1.579009 -0.949299
v 0.391297 2.943618 0.105049
v 0.457959 3.040540 0.588694
vn -0.0656 -0.7452 -0.6636
vn -0.4375 0.2732 0.8567
vn 0.9776 0.0461 0.2053
vn 0.0074 -0.6636 0.7480
vn 0.7424 0.6297 -0.2285
vn -0.7700 -0.4100 -0.4889
vn -0.0020 -0.9999 0.0107
vn -0.9917 0.1030 -0.0771
vn -0.6156 -0.6815 0.3957
vn -0.4652 0.8781 -0.1119
vn -0.1804 0.5301 -0.8285
vn 0.7724 -0.5367 -0.3396
vn 0.7543 0.4256 0.4999
vt 0.123959 0.573775
vt 0.244703 0.590036
vt 0.274669 0.769203
vt 0.134871 0.750376
vt 0.764789 0.396780
vt 0.737931 0.348567
vt 0.720078 0.020731
vt 0.842499 0.014313
vt 0.842499 0.317733
vt 0.538608 0.766368
vt 0.754474 0.766368
vt 0.751349 0.869276
vt 0.506072 0.869276
vt 0.552291 0.385048
vt 0.424633 0.191127
vt 0.473497 0.041557
vt 0.571844 0.000000
vt 0.424633 0.905400
vt 0.424633 0.586100
vt 0.472864 0.534360
vt 0.878438 0.880354
vt 0.823784 0.842463
vt 0.834003 0.769838
vt 0.980457 0.760049
vt 1.000000 0.872230
vt 0.000000 0.822217
vt -0.000000 0.590417
vt 0.077379 0.530009
vt 1.000000 0.557802
vt 0.768225 0.605513
vt 0.921368 0.485811
vt 0.621540 0.485811
vt 0.529042 0.477543
vt 0.085949 0.128317
vt 0.090107 0.059523
vt 0.386931 0.000000
vt 0.424633 0.046268
vt 0.402734 0.098975
vt 0.045721 0.454929
vt 0.000000 0.312432
vt 0.424633 0.417560
vt 0.211135 0.530009
vt 0.330403 0.909870
vt 0.243370 0.945938
vt 0.000289 0.913201
vt 0.540152 0.485811
vt 0.768225 0.622649
s 0
usemtl Sphere.001_Baked.008
f 14/1/1 15/2/1 8/3/1 9/4/1
f 12/5/2 6/6/2 3/7/2 4/8/2 11/9/2
f 18/10/3 1/11/3 2/12/3 19/13/3
f 7/14/4 5/15/4 2/16/4 1/17/4 3/7/4 6/6/4
f 20/18/5 21/19/5 22/20/5 18/10/5 19/13/5
f 14/21/6 13/22/6 16/23/6 17/24/6 15/25/6
f 14/1/7 9/4/7 5/26/7 7/27/7 13/28/7
f 10/29/8 17/24/8 16/23/8 12/30/8 11/31/8
f 12/5/9 16/32/9 13/33/9 7/14/9 6/6/9
f 10/34/10 11/35/10 4/36/10 22/37/10 21/38/10
f 15/39/11 17/40/11 10/34/11 21/38/11 20/41/11 8/42/11
f 9/4/12 8/3/12 20/43/12 19/44/12 2/45/12 5/26/12
f 4/46/13 3/47/13 1/11/13 18/10/13 22/20/13
