# Blender 4.2.2 LTS
# www.blender.org
mtllib test-rock.mtl
o Sphere.003
v -0.816854 0.514433 -1.563285
v -0.913303 0.890370 -1.402419
v -0.824339 -0.034974 -1.344328
v 1.137589 -0.030100 -0.847689
v -1.197611 1.103805 -0.608935
v -1.421768 -0.033906 0.482724
v -1.526887 0.667048 0.554124
v 0.786207 1.922415 0.507858
v -0.365507 1.613598 0.339307
v 0.828910 0.377750 1.055106
v 0.322169 -0.029770 0.771629
v -1.124701 -0.032783 0.856504
v -1.076745 0.923372 1.194448
v -0.691948 1.228652 1.177852
v 0.302786 1.495377 1.323429
v -0.885025 0.624803 1.348766
v 0.313394 0.946142 1.524152
v 0.945624 0.987017 -1.305350
v 1.089304 1.427343 -1.109341
v 1.658164 1.732089 -0.587266
v 1.959806 0.582383 -0.541923
v 1.651577 0.292635 -0.846803
vn -0.2880 0.9079 0.3046
vn 0.0022 -1.0000 0.0013
vn 0.0271 0.3991 -0.9165
vn -0.9447 -0.1102 -0.3088
vn 0.6297 0.1350 -0.7650
vn -0.2229 0.3308 0.9170
vn -0.6139 0.7803 0.1192
vn 0.0477 -0.6097 0.7912
vn -0.7701 -0.1779 0.6126
vn 0.5133 -0.8183 0.2587
vn 0.7807 0.2278 0.5820
vn -0.2012 0.9255 -0.3210
vn 0.2295 -0.3630 -0.9031
vt 0.410688 0.262186
vt 0.489302 0.255754
vt 0.551863 0.424555
vt 0.458464 0.423896
vt 0.167330 0.315477
vt 0.194475 0.376036
vt 0.173556 0.687099
vt 0.972619 0.650051
vt 0.297926 0.357241
vt 0.545085 0.730813
vt 0.292169 0.730813
vt 0.345157 0.695593
vt 0.561090 0.695593
vt 0.308951 0.359802
vt 0.370547 0.554924
vt 0.628622 0.624010
vt 0.755712 0.616171
vt 0.694389 0.663211
vt 0.353230 0.251191
vt 0.284218 0.220192
vt 0.316761 0.210457
vt 0.231230 0.298621
vt 0.914616 0.663211
vt 0.536160 0.650051
s 0
usemtl Material.001
f 14/1/1 15/2/1 8/3/1 9/4/1
f 12/5/2 6/6/2 3/7/2 4/8/2 11/9/2
f 18/10/3 1/11/3 2/12/3 19/13/3
f 7/14/4 5/15/4 2/12/4 1/11/4 3/7/4 6/6/4
f 20/16/5 21/17/5 22/18/5 18/10/5 19/13/5
f 14/1/6 13/19/6 16/20/6 17/21/6 15/2/6
f 14/1/7 9/4/7 5/15/7 7/14/7 13/19/7
f 10/22/8 17/21/8 16/20/8 12/5/8 11/9/8
f 12/5/9 16/20/9 13/19/9 7/14/9 6/6/9
f 10/22/10 11/9/10 4/8/10 22/23/10 21/17/10
f 15/2/11 17/21/11 10/22/11 21/17/11 20/16/11 8/3/11
f 9/4/12 8/3/12 20/16/12 19/13/12 2/12/12 5/15/12
f 4/24/13 3/7/13 1/11/13 18/10/13 22/18/13
