# Blender 4.4.0
# www.blender.org
mtllib tiles-floor.mtl
o Cube.009
v -1.000000 0.000000 3.000000
v -3.000000 0.000000 3.000000
v -1.000000 0.000000 1.000000
v -3.000000 0.000000 1.000000
v -2.954339 2.000000 2.954339
v -3.000000 1.954339 3.000000
v -1.045661 2.000000 1.045661
v -1.000000 1.954339 1.000000
v -3.000000 1.728573 3.000000
v -2.954339 2.000000 2.095757
v -3.000000 1.954339 1.810460
v -1.733255 2.000000 1.045661
v -2.057572 1.954339 1.000000
v -3.000000 1.840319 1.000000
v -1.390255 2.000000 2.954339
v -1.150099 1.954339 3.000000
v -1.045661 2.000000 2.042928
v -1.000000 1.954339 2.603005
v -1.000000 1.927714 3.000000
v -1.000000 0.000000 3.000000
v -1.000000 0.000000 1.000000
v 1.000000 0.000000 3.000000
v 1.000000 0.000000 1.000000
v -0.954339 2.000000 2.954339
v -1.000000 1.954339 3.000000
v -0.954339 2.000000 1.045661
v -1.000000 1.954339 1.000000
v 0.954339 2.000000 2.954339
v 1.000000 1.954339 3.000000
v 0.954339 2.000000 1.045661
v 1.000000 1.954339 1.000000
v -1.000000 0.000000 1.000000
v -1.000000 0.000000 -1.000000
v 1.000000 0.000000 1.000000
v 1.000000 0.000000 -1.000000
v -0.954339 2.000000 -0.954339
v -1.000000 1.954339 -1.000000
v 0.954338 2.000000 0.954339
v 1.000000 1.954339 1.000000
v -1.000000 1.728573 -1.000000
v -0.095757 2.000000 -0.954339
v 0.189540 1.954339 -1.000000
v 0.954338 2.000000 0.266745
v 1.000000 1.954339 -0.057572
v 1.000000 1.840319 -1.000000
v -0.954339 2.000000 0.609745
v -1.000000 1.954339 0.849901
v -0.042928 2.000000 0.954339
v -0.603005 1.954339 1.000000
v -1.000000 1.927714 1.000000
v -1.000000 0.000000 -1.000000
v -1.000000 0.000000 -3.000000
v 1.000000 0.000000 -1.000000
v 1.000000 0.000000 -3.000000
v -0.954339 2.000000 -1.045662
v -1.000000 1.954339 -1.000000
v -0.954339 2.000000 -2.954339
v -1.000000 1.954339 -3.000000
v 0.954339 2.000000 -2.954339
v 1.000000 1.954339 -3.000000
v 0.954339 2.000000 -1.317281
v 1.000000 1.954339 -1.137303
v 0.636898 2.000000 -1.045662
v 0.839534 1.954339 -1.000000
v 1.000000 1.925717 -1.000000
v 1.000000 0.000000 1.000000
v 1.000000 0.000000 -1.000000
v 3.000000 0.000000 1.000000
v 3.000000 0.000000 -1.000000
v 1.045661 2.000000 0.954339
v 1.000000 1.954339 1.000000
v 1.045661 2.000000 -0.954339
v 1.000000 1.954339 -1.000000
v 2.954339 2.000000 0.954339
v 3.000000 1.954339 1.000000
v 2.954339 2.000000 -0.954339
v 3.000000 1.954339 -1.000000
v 1.000000 0.000000 -1.000000
v 1.000000 0.000000 -3.000000
v 3.000000 0.000000 -1.000000
v 3.000000 0.000000 -3.000000
v 1.045661 2.000000 -1.045661
v 1.000000 1.954339 -1.000000
v 1.045661 2.000000 -2.954339
v 1.000000 1.954339 -3.000000
v 2.954339 2.000000 -1.045661
v 3.000000 1.954339 -1.000000
v 2.954338 2.000000 -2.954339
v 3.000000 1.954339 -3.000000
v -3.000000 0.000000 -1.000000
v -1.000000 0.000000 -1.000000
v -3.000000 0.000000 1.000000
v -1.000000 0.000000 1.000000
v -2.954339 2.000000 -0.954339
v -3.000000 1.954339 -1.000000
v -1.045661 2.000000 -0.954339
v -1.000000 1.954339 -1.000000
v -1.045661 2.000000 0.954339
v -1.000000 1.954339 1.000000
v -2.682719 2.000000 0.954339
v -2.862697 1.954339 1.000000
v -2.954339 2.000000 0.636898
v -3.000000 1.954339 0.839534
v -3.000000 1.925717 1.000000
v 1.000000 0.000000 3.000000
v 1.000000 0.000000 1.000000
v 3.000000 0.000000 3.000000
v 3.000000 0.000000 1.000000
v 1.045661 2.000000 2.954339
v 1.000000 1.954339 3.000000
v 2.954339 2.000000 1.045661
v 3.000000 1.954339 1.000000
v 2.954339 2.000000 2.682719
v 3.000000 1.954339 2.862697
v 2.636898 2.000000 2.954339
v 2.839534 1.954339 3.000000
v 3.000000 1.925717 3.000000
v 1.045661 2.000000 1.460622
v 1.000000 1.954339 1.173916
v 1.727743 2.000000 1.045661
v 1.285870 1.954339 1.000000
v 1.000000 1.929087 1.000000
v -1.000000 0.000000 -1.000000
v -3.000000 0.000000 -1.000000
v -1.000000 0.000000 -3.000000
v -3.000000 0.000000 -3.000000
v -1.045661 2.000000 -1.045662
v -1.000000 1.954339 -1.000000
v -2.954339 2.000000 -2.954338
v -3.000000 1.954339 -3.000000
v -1.317281 2.000000 -2.954339
v -1.137303 1.954339 -3.000000
v -1.045661 2.000000 -2.636898
v -1.000000 1.954339 -2.839534
v -1.000000 1.925717 -3.000000
v -2.539378 2.000000 -1.045661
v -2.826084 1.954339 -1.000000
v -2.954339 2.000000 -1.727743
v -3.000000 1.954339 -1.285870
v -3.000000 1.929087 -1.000000
vn -0.0000 -1.0000 -0.0000
vn -0.1190 0.9832 -0.1383
vn -0.0000 0.7071 0.7071
vn -0.0000 0.7071 -0.7071
vn 0.1743 0.9825 0.0659
vn -0.0000 -0.0000 -1.0000
vn -1.0000 -0.0000 -0.0000
vn -0.7071 0.7071 -0.0000
vn 1.0000 -0.0000 -0.0000
vn 0.7071 0.7071 -0.0000
vn -0.0000 -0.0000 1.0000
vn -0.0000 1.0000 -0.0000
vn 0.1383 0.9832 -0.1190
vn -0.0659 0.9825 0.1743
vn 0.1720 0.9644 0.2010
vn -0.2010 0.9644 0.1720
vn -0.0871 0.9859 -0.1431
vn 0.2010 0.9644 -0.1720
vn -0.1431 0.9859 0.0871
vt 0.125000 0.500000
vt 0.375000 0.500000
vt 0.375000 0.750000
vt 0.125000 0.750000
vt 0.726308 0.500000
vt 0.761970 0.505708
vt 0.630708 0.658343
vt 0.619292 0.617803
vt 0.605040 0.500000
vt 0.869292 0.701218
vt 0.869292 0.505708
vt 0.875000 0.500000
vt 0.875000 0.731238
vt 0.630708 0.744292
vt 0.619292 0.750000
vt 0.615964 1.000000
vt 0.825376 0.750000
vt 0.755366 0.744292
vt 0.375000 0.250000
vt 0.591072 0.250000
vt 0.619292 0.250000
vt 0.619292 0.398692
vt 0.619292 0.950376
vt 0.375000 1.000000
vt 0.625000 0.750000
vt 0.375000 0.000000
vt 0.615964 0.000000
vt 0.619292 0.018762
vt 0.630708 0.505708
vt 0.869292 0.744292
vt 0.619292 0.500000
vt 0.619292 0.000000
vt 0.875000 0.750000
vt 0.625000 0.500000
vt 0.619292 1.000000
vt 0.619292 0.732837
vt 0.630708 0.710340
vt 0.670388 0.744292
vt 0.645058 0.750000
vt 0.615715 0.750000
vt 0.619292 0.770058
vt 0.875000 0.521740
vt 0.869292 0.557578
vt 0.784032 0.505708
vt 0.839266 0.500000
vt 0.616136 0.250000
vt 0.619292 0.285734
vt 0.619292 0.228260
s 0
f 2/1/1 4/2/1 3/3/1 1/4/1
f 11/5/2 10/6/2 12/7/2 13/8/2 14/9/2
f 15/10/3 5/11/3 6/12/3 16/13/3
f 12/7/4 7/14/4 8/15/4 13/8/4
f 16/13/5 19/16/5 18/17/5 17/18/5 15/10/5
f 4/2/6 14/9/6 13/8/6 8/15/6 3/3/6
f 2/19/7 9/20/7 6/21/7 11/22/7 14/9/7 4/2/7
f 5/11/8 10/6/8 11/5/8 6/12/8
f 3/3/9 8/15/9 18/23/9 19/16/9 1/24/9
f 7/14/10 17/18/10 18/17/10 8/25/10
f 1/26/11 19/27/11 16/28/11 6/21/11 9/20/11 2/19/11
f 10/6/12 5/11/12 15/10/12 17/18/12 7/14/12 12/7/12
f 30/29/12 26/11/12 24/30/12 28/14/12
f 23/2/9 31/31/9 29/15/9 22/3/9
f 20/26/7 25/32/7 27/21/7 21/19/7
f 21/1/1 23/2/1 22/3/1 20/4/1
f 21/19/6 27/21/6 31/31/6 23/2/6
f 24/30/8 26/11/8 27/12/8 25/33/8
f 26/11/4 30/29/4 31/34/4 27/12/4
f 30/29/10 28/14/10 29/15/10 31/31/10
f 28/14/3 24/30/3 25/33/3 29/25/3
f 22/3/11 29/15/11 25/35/11 20/24/11
f 33/1/1 35/2/1 34/3/1 32/4/1
f 42/5/13 41/6/13 43/7/13 44/8/13 45/9/13
f 46/10/8 36/11/8 37/12/8 47/13/8
f 43/7/10 38/14/10 39/15/10 44/8/10
f 47/13/14 50/16/14 49/17/14 48/18/14 46/10/14
f 35/2/9 45/9/9 44/8/9 39/15/9 34/3/9
f 33/19/6 40/20/6 37/21/6 42/22/6 45/9/6 35/2/6
f 36/11/4 41/6/4 42/5/4 37/12/4
f 34/3/11 39/15/11 49/23/11 50/16/11 32/24/11
f 38/14/3 48/18/3 49/17/3 39/25/3
f 32/26/7 50/27/7 47/28/7 37/21/7 40/20/7 33/19/7
f 41/6/12 36/11/12 46/10/12 48/18/12 38/14/12 43/7/12
f 62/36/15 61/37/15 63/38/15 64/39/15 65/40/15
f 51/26/7 56/32/7 58/21/7 52/19/7
f 52/1/1 54/2/1 53/3/1 51/4/1
f 52/19/6 58/21/6 60/31/6 54/2/6
f 55/30/8 57/11/8 58/12/8 56/33/8
f 57/11/4 59/29/4 60/34/4 58/12/4
f 63/38/3 55/30/3 56/33/3 64/39/3
f 53/3/11 65/40/11 64/41/11 56/35/11 51/24/11
f 54/2/9 60/31/9 62/36/9 65/40/9 53/3/9
f 59/29/12 57/11/12 55/30/12 63/38/12 61/37/12
f 59/29/10 61/37/10 62/36/10 60/31/10
f 76/29/12 72/11/12 70/30/12 74/14/12
f 69/2/9 77/31/9 75/15/9 68/3/9
f 66/26/7 71/32/7 73/21/7 67/19/7
f 67/1/1 69/2/1 68/3/1 66/4/1
f 67/19/6 73/21/6 77/31/6 69/2/6
f 70/30/8 72/11/8 73/12/8 71/33/8
f 72/11/4 76/29/4 77/34/4 73/12/4
f 76/29/10 74/14/10 75/15/10 77/31/10
f 74/14/3 70/30/3 71/33/3 75/25/3
f 68/3/11 75/15/11 71/35/11 66/24/11
f 88/29/12 84/11/12 82/30/12 86/14/12
f 81/2/9 89/31/9 87/15/9 80/3/9
f 78/26/7 83/32/7 85/21/7 79/19/7
f 79/1/1 81/2/1 80/3/1 78/4/1
f 79/19/6 85/21/6 89/31/6 81/2/6
f 82/30/8 84/11/8 85/12/8 83/33/8
f 84/11/4 88/29/4 89/34/4 85/12/4
f 88/29/10 86/14/10 87/15/10 89/31/10
f 86/14/3 82/30/3 83/33/3 87/25/3
f 80/3/11 87/15/11 83/35/11 78/24/11
f 101/36/16 100/37/16 102/38/16 103/39/16 104/40/16
f 90/26/6 95/32/6 97/21/6 91/19/6
f 91/1/1 93/2/1 92/3/1 90/4/1
f 91/19/9 97/21/9 99/31/9 93/2/9
f 94/30/4 96/11/4 97/12/4 95/33/4
f 96/11/10 98/29/10 99/34/10 97/12/10
f 102/38/8 94/30/8 95/33/8 103/39/8
f 92/3/7 104/40/7 103/41/7 95/35/7 90/24/7
f 93/2/11 99/31/11 101/36/11 104/40/11 92/3/11
f 98/29/12 96/11/12 94/30/12 102/38/12 100/37/12
f 98/29/3 100/37/3 101/36/3 99/31/3
f 114/36/15 113/37/15 115/38/15 116/39/15 117/40/15
f 119/42/17 118/43/17 120/44/17 121/45/17 122/46/17
f 106/1/1 108/2/1 107/3/1 105/4/1
f 120/44/4 111/29/4 112/34/4 121/45/4
f 115/38/3 109/30/3 110/33/3 116/39/3
f 107/3/11 117/40/11 116/41/11 110/35/11 105/24/11
f 108/2/9 112/31/9 114/36/9 117/40/9 107/3/9
f 111/29/10 113/37/10 114/36/10 112/31/10
f 106/19/6 122/46/6 121/47/6 112/31/6 108/2/6
f 105/26/7 110/32/7 119/48/7 122/46/7 106/19/7
f 109/30/8 118/43/8 119/42/8 110/33/8
f 111/29/12 120/44/12 118/43/12 109/30/12 115/38/12 113/37/12
f 132/36/18 131/37/18 133/38/18 134/39/18 135/40/18
f 137/42/19 136/43/19 138/44/19 139/45/19 140/46/19
f 124/1/1 126/2/1 125/3/1 123/4/1
f 138/44/8 129/29/8 130/34/8 139/45/8
f 133/38/10 127/30/10 128/33/10 134/39/10
f 125/3/9 135/40/9 134/41/9 128/35/9 123/24/9
f 126/2/6 130/31/6 132/36/6 135/40/6 125/3/6
f 129/29/4 131/37/4 132/36/4 130/31/4
f 124/19/7 140/46/7 139/47/7 130/31/7 126/2/7
f 123/26/11 128/32/11 137/48/11 140/46/11 124/19/11
f 127/30/3 136/43/3 137/42/3 128/33/3
f 129/29/12 138/44/12 136/43/12 127/30/12 133/38/12 131/37/12
